#!OML:ASF X:\2005_08_12_Meinard\c3d\meinard.ASF
:FULLY-SPECIFIED
:DEGREES
1640
root 10.1288 16.82 -4.55035 -15.4614 -72.055 3.96287
lowerback 32.2003 0.198292 1.50785
upperback 5.74405 -0.127385 -3.06371
thorax -10.3064 -0.325377 -3.98676
lowerneck -15.6529 -3.92619 2.47346
upperneck -2.02742 -5.98849 4.78238
head 2.11204 -2.91379 0.719142
rclavicle -1.59028e-015 1.59028e-015
rhumerus -40.6662 16.9596 -104.086
rradius 66.9379
rwrist 5.50713
rhand -8.81737 2.97932
rfingers 7.12502
rthumb 17.1222 -26.2862
lclavicle -1.59028e-015 1.59028e-015
lhumerus 25.0299 153.558 97.8445
lradius 17.4888
lwrist -148.886
lhand -19.2315 -14.2268
lfingers 7.12502
lthumb 7.08171 15.6348
rfemur 18.2254 -5.16622 19.8083
rtibia 21.436
rfoot -29.1506 -4.15955
rtoes -10.0169
lfemur -5.94372 7.46707 -21.01
ltibia 42.578
lfoot -21.314 0.760058
ltoes -15.6402
1641
root 10.1116 16.8058 -4.5262 -15.3723 -71.9937 3.75103
lowerback 32.162 0.151461 1.31939
upperback 5.81781 -0.252995 -3.05448
thorax -10.2177 -0.378682 -3.82631
lowerneck -15.4588 -3.8484 2.69238
upperneck -2.19166 -5.90654 4.6833
head 2.00903 -2.88609 0.661522
rclavicle 1.78906e-014 -1.82882e-014
rhumerus -40.8086 17.7939 -104.617
rradius 70.2761
rwrist 4.72586
rhand -9.01645 3.29183
rfingers 7.12502
rthumb 16.9306 -25.9902
lclavicle 1.78906e-014 -1.82882e-014
lhumerus 24.7845 154.195 97.4561
lradius 17.7209
lwrist -149.564
lhand -19.5362 -13.9997
lfingers 7.12502
lthumb 6.78755 15.8715
rfemur 18.224 -5.54858 19.5904
rtibia 21.9261
rfoot -29.3916 -3.80968
rtoes -10.0634
lfemur -5.32058 7.47627 -20.9748
ltibia 42.4965
lfoot -21.7062 0.596949
ltoes -14.9576
1642
root 10.0948 16.7941 -4.50106 -15.3365 -71.9304 3.59595
lowerback 32.1529 0.0995329 1.09084
upperback 5.88082 -0.398127 -3.04281
thorax -10.1531 -0.440756 -3.63478
lowerneck -15.2227 -3.73953 2.91156
upperneck -2.37172 -5.78057 4.59967
head 1.89427 -2.83705 0.61279
rclavicle -8.07066e-014 1.74931e-014
rhumerus -40.8398 18.8715 -105.133
rradius 73.6774
rwrist 3.87443
rhand -9.17777 3.36818
rfingers 7.12502
rthumb 16.7753 -25.9271
lclavicle -8.07066e-014 1.74931e-014
lhumerus 24.5167 154.912 97.0026
lradius 17.9122
lwrist -150.383
lhand -19.7806 -13.7497
lfingers 7.12502
lthumb 6.5516 16.129
rfemur 18.2002 -5.94245 19.3327
rtibia 22.436
rfoot -29.6145 -3.43015
rtoes -10.0566
lfemur -4.75084 7.50047 -20.9741
ltibia 42.3761
lfoot -22.1247 0.406237
ltoes -14.4121
1643
root 10.0782 16.7821 -4.47603 -15.2924 -71.8835 3.39162
lowerback 32.2297 0.0399834 0.842375
upperback 5.92685 -0.558714 -3.01419
thorax -10.141 -0.510555 -3.40904
lowerneck -14.9784 -3.61322 3.16188
upperneck -2.50963 -5.63421 4.45794
head 1.79012 -2.77804 0.541135
rclavicle 2.66371e-014 -6.2816e-014
rhumerus -40.8157 20.0302 -105.612
rradius 77.2016
rwrist 3.05324
rhand -9.25733 3.22729
rfingers 7.12502
rthumb 16.6987 -26.0745
lclavicle 2.66371e-014 -6.2816e-014
lhumerus 24.157 155.874 96.3824
lradius 18.1595
lwrist -151.475
lhand -19.9394 -13.5171
lfingers 7.12502
lthumb 6.39829 16.3662
rfemur 18.1844 -6.33028 19.0865
rtibia 22.9861
rfoot -29.7865 -3.06124
rtoes -10.0586
lfemur -4.20823 7.55187 -20.9603
ltibia 42.2362
lfoot -22.5642 0.236173
ltoes -14.0437
1644
root 10.0622 16.7725 -4.44945 -15.2956 -71.8263 3.24082
lowerback 32.3018 -0.0328881 0.582739
upperback 5.98852 -0.740702 -2.98399
thorax -10.1092 -0.590269 -3.16746
lowerneck -14.7057 -3.47631 3.33942
upperneck -2.67998 -5.45963 4.36033
head 1.67497 -2.70466 0.498344
rclavicle 4.41302e-014 7.95139e-016
rhumerus -40.696 21.2721 -106.011
rradius 80.8064
rwrist 2.2076
rhand -9.32919 3.01619
rfingers 7.12502
rthumb 16.6295 -26.2914
lclavicle 4.41302e-014 7.95139e-016
lhumerus 23.7373 156.899 95.7205
lradius 18.425
lwrist -152.691
lhand -20.0885 -13.4212
lfingers 7.12502
lthumb 6.25436 16.4665
rfemur 18.1338 -6.68626 18.8271
rtibia 23.5933
rfoot -29.9535 -2.70374
rtoes -10.1607
lfemur -3.71327 7.60822 -20.9734
ltibia 42.0687
lfoot -22.9591 0.17084
ltoes -13.9197
1645
root 10.0466 16.7626 -4.42002 -15.2862 -71.7622 3.08764
lowerback 32.3918 -0.121343 0.344258
upperback 6.02208 -0.934836 -2.95527
thorax -10.1148 -0.676056 -2.93466
lowerneck -14.4092 -3.34394 3.50462
upperneck -2.79299 -5.2876 4.25733
head 1.57613 -2.63017 0.455228
rclavicle 1.35174e-014 -7.15625e-015
rhumerus -40.3839 22.7728 -106.355
rradius 84.2388
rwrist 1.25659
rhand -9.55393 2.85791
rfingers 7.12502
rthumb 16.4132 -26.4677
lclavicle 1.35174e-014 -7.15625e-015
lhumerus 23.3318 158.006 95.0358
lradius 18.7095
lwrist -154.02
lhand -20.1852 -13.339
lfingers 7.12502
lthumb 6.16103 16.5514
rfemur 18.0419 -7.08209 18.5227
rtibia 24.2631
rfoot -30.0674 -2.26736
rtoes -10.1226
lfemur -3.26703 7.64514 -21.0088
ltibia 41.8851
lfoot -23.2728 0.235054
ltoes -14.0174
1646
root 10.031 16.7521 -4.38929 -15.3222 -71.6934 2.94824
lowerback 32.5046 -0.22423 0.113506
upperback 6.07162 -1.14737 -2.93272
thorax -10.1112 -0.771114 -2.70536
lowerneck -14.1136 -3.18407 3.6847
upperneck -2.90467 -5.08024 4.13677
head 1.47789 -2.53841 0.405641
rclavicle 6.75868e-015 -1.66979e-014
rhumerus -39.9152 24.2498 -106.577
rradius 87.6861
rwrist 0.322439
rhand -9.72548 2.80405
rfingers 7.12502
rthumb 16.248 -26.5351
lclavicle 6.75868e-015 -1.66979e-014
lhumerus 22.8984 159.036 94.3942
lradius 19.0148
lwrist -155.299
lhand -20.2093 -13.3391
lfingers 7.12502
lthumb 6.13773 16.552
rfemur 17.9374 -7.42492 18.2313
rtibia 25.0193
rfoot -30.1402 -1.89897
rtoes -10.1039
lfemur -2.80814 7.62885 -21.0501
ltibia 41.6742
lfoot -23.4941 0.299482
ltoes -13.7984
1647
root 10.0151 16.7439 -4.35717 -15.3593 -71.6333 2.79653
lowerback 32.6328 -0.334182 -0.115109
upperback 6.12205 -1.36678 -2.8922
thorax -10.1103 -0.869526 -2.45528
lowerneck -13.8263 -3.03025 3.76019
upperneck -2.95062 -4.86614 4.04327
head 1.40764 -2.43859 0.38099
rclavicle 2.98177e-015 -9.54166e-015
rhumerus -39.276 25.7605 -106.655
rradius 91.031
rwrist -0.634438
rhand -9.92364 2.94215
rfingers 7.12502
rthumb 16.0572 -26.4125
lclavicle 2.98177e-015 -9.54166e-015
lhumerus 22.4787 160.029 93.8322
lradius 19.3323
lwrist -156.539
lhand -20.1768 -13.4313
lfingers 7.12502
lthumb 6.1691 16.4588
rfemur 17.7904 -7.70198 17.9646
rtibia 25.8642
rfoot -30.1769 -1.55749
rtoes -10.2249
lfemur -2.35584 7.59064 -21.0908
ltibia 41.4415
lfoot -23.6848 0.304836
ltoes -13.5622
1648
root 9.99943 16.7351 -4.32497 -15.4065 -71.5815 2.65438
lowerback 32.7752 -0.440244 -0.342547
upperback 6.15625 -1.58149 -2.85442
thorax -10.1307 -0.965564 -2.21027
lowerneck -13.5291 -2.87851 3.8425
upperneck -2.9483 -4.65594 3.95917
head 1.35231 -2.33841 0.357063
rclavicle 2.40529e-014 7.95139e-016
rhumerus -38.4765 27.2269 -106.616
rradius 94.2558
rwrist -1.55843
rhand -10.1394 3.18883
rfingers 7.12502
rthumb 15.8494 -26.1825
lclavicle 2.40529e-014 7.95139e-016
lhumerus 22.0622 161.062 93.2427
lradius 19.669
lwrist -157.905
lhand -20.1892 -13.6124
lfingers 7.12502
lthumb 6.15713 16.2781
rfemur 17.586 -7.89419 17.7347
rtibia 26.805
rfoot -30.1587 -1.30939
rtoes -10.2139
lfemur -1.92003 7.49005 -21.1408
ltibia 41.1918
lfoot -23.8077 0.320131
ltoes -13.3795
1649
root 9.98394 16.7294 -4.29255 -15.519 -71.5225 2.58121
lowerback 32.9051 -0.538263 -0.610065
upperback 6.21115 -1.79955 -2.80806
thorax -10.1195 -1.06273 -1.93338
lowerneck -13.3029 -2.70839 3.93999
upperneck -2.87831 -4.42887 3.85094
head 1.33113 -2.22718 0.321361
rclavicle 4.7112e-014 1.43125e-014
rhumerus -37.411 28.7815 -106.386
rradius 97.2735
rwrist -2.54999
rhand -10.5076 3.54169
rfingers 7.12502
rthumb 15.4948 -25.8574
lclavicle 4.7112e-014 1.43125e-014
lhumerus 21.6201 161.963 92.7309
lradius 19.9872
lwrist -159.156
lhand -20.1409 -13.7748
lfingers 7.12502
lthumb 6.20383 16.1144
rfemur 17.3105 -8.08913 17.4682
rtibia 27.8609
rfoot -30.0575 -1.0203
rtoes -10.2624
lfemur -1.50429 7.39165 -21.2069
ltibia 40.9267
lfoot -23.9056 0.334468
ltoes -13.2102
1650
root 9.96757 16.7242 -4.26113 -15.5635 -71.4774 2.43062
lowerback 33.038 -0.625899 -0.851836
upperback 6.25368 -1.99467 -2.75378
thorax -10.1204 -1.14959 -1.6705
lowerneck -13.0096 -2.5475 4.0552
upperneck -2.81255 -4.21054 3.72341
head 1.29651 -2.12119 0.277059
rclavicle 1.19271e-014 -1.43125e-014
rhumerus -36.1451 30.2513 -106.012
rradius 100.055
rwrist -3.44768
rhand -10.9387 3.904
rfingers 7.12502
rthumb 15.0796 -25.5268
lclavicle 1.19271e-014 -1.43125e-014
lhumerus 21.2111 162.785 92.2571
lradius 20.2939
lwrist -160.405
lhand -20.12 -13.9767
lfingers 7.12502
lthumb 6.224 15.9119
rfemur 16.9581 -8.27212 17.2338
rtibia 29.0509
rfoot -29.7978 -0.742297
rtoes -10.2951
lfemur -1.09536 7.24231 -21.2454
ltibia 40.6611
lfoot -23.9652 0.415165
ltoes -12.7716
1651
root 9.95083 16.721 -4.23178 -15.6831 -71.4242 2.3529
lowerback 33.1825 -0.696882 -1.15493
upperback 6.29262 -2.1899 -2.69284
thorax -10.125 -1.23512 -1.36749
lowerneck -12.6983 -2.37657 4.2178
upperneck -2.73032 -3.98291 3.55474
head 1.26288 -2.01107 0.212112
rclavicle 1.80894e-014 3.4191e-014
rhumerus -34.6283 31.7547 -105.492
rradius 102.586
rwrist -4.33387
rhand -11.4697 4.20404
rfingers 7.12502
rthumb 14.568 -25.2644
lclavicle 1.80894e-014 3.4191e-014
lhumerus 20.8484 163.529 91.8275
lradius 20.5562
lwrist -161.608
lhand -20.0877 -14.2295
lfingers 7.12502
lthumb 6.25515 15.6581
rfemur 16.5163 -8.41789 16.9873
rtibia 30.3894
rfoot -29.3634 -0.48496
rtoes -10.2418
lfemur -0.692402 7.10831 -21.2996
ltibia 40.3834
lfoot -24.0161 0.499404
ltoes -12.2695
